<!--?xml version="1.0" standalone="no"?-->
              <svg id="sw-js-blob-svg" viewBox="0 0 100 100" xmlns="http://www.w3.org/2000/svg" version="1.1">
                    <defs> 
                        <linearGradient id="sw-gradient" x1="0" x2="1" y1="1" y2="0">
                            <stop id="stop1" stop-color="rgba(255, 226.117, 226.117, 1)" offset="0%" data-darkreader-inline-stopcolor="" style="--darkreader-inline-stopcolor: #a93a06;"></stop>
                            <stop id="stop2" stop-color="rgba(255, 0, 0, 0.85)" offset="100%" data-darkreader-inline-stopcolor="" style="--darkreader-inline-stopcolor: #b97403;"></stop>
                        </linearGradient>
                    </defs>
                <path fill="url(#sw-gradient)" d="M24.5,-34.2C31.7,-28.6,37.3,-21.3,37.8,-13.7C38.4,-6.1,33.9,1.7,29.8,8.3C25.8,14.9,22.2,20.3,17.3,26.5C12.4,32.7,6.2,39.7,-1.8,42.2C-9.8,44.6,-19.5,42.5,-26.2,36.8C-32.8,31.2,-36.3,22.1,-38.6,13C-41,4,-42.1,-5,-39,-12.1C-35.9,-19.1,-28.6,-24.2,-21.4,-29.8C-14.2,-35.4,-7.1,-41.5,0.8,-42.6C8.7,-43.7,17.4,-39.8,24.5,-34.2Z" width="100%" height="100%" transform="translate(50 50)" stroke-width="0" style="transition: 0.3s;"></path>
              </svg>