<svg xmlns="http://www.w3.org/2000/svg" xmlns:xlink="http://www.w3.org/1999/xlink" width="200" zoomAndPan="magnify" viewBox="0 0 150 149.999998" height="200" preserveAspectRatio="xMidYMid meet" version="1.0"><defs><g/><clipPath id="dea889429a"><path d="M 9.886719 9.886719 L 140.113281 9.886719 L 140.113281 141 L 9.886719 141 Z M 9.886719 9.886719 " clip-rule="nonzero"/></clipPath><clipPath id="5f7c6b8c0f"><path d="M 35.386719 9.886719 L 114.613281 9.886719 C 128.695312 9.886719 140.113281 21.304688 140.113281 35.386719 L 140.113281 115.214844 C 140.113281 129.296875 128.695312 140.714844 114.613281 140.714844 L 35.386719 140.714844 C 21.304688 140.714844 9.886719 129.296875 9.886719 115.214844 L 9.886719 35.386719 C 9.886719 21.304688 21.304688 9.886719 35.386719 9.886719 Z M 35.386719 9.886719 " clip-rule="nonzero"/></clipPath></defs><g clip-path="url(#dea889429a)"><g clip-path="url(#5f7c6b8c0f)"><path fill="#000000" d="M 9.886719 9.886719 L 140.113281 9.886719 L 140.113281 140.621094 L 9.886719 140.621094 Z M 9.886719 9.886719 " fill-opacity="1" fill-rule="nonzero"/></g></g><g fill="#ffffff" fill-opacity="1"><g transform="translate(41.200067, 102.171432)"><g><path d="M 36.609375 -84.46875 C 41.097656 -84.46875 45.488281 -83.8125 49.78125 -82.5 C 54.070312 -81.195312 57.253906 -79.910156 59.328125 -78.640625 L 62.34375 -76.625 L 54.703125 -61.546875 C 54.097656 -61.941406 53.257812 -62.457031 52.1875 -63.09375 C 51.113281 -63.738281 49.101562 -64.597656 46.15625 -65.671875 C 43.207031 -66.742188 40.457031 -67.28125 37.90625 -67.28125 C 34.757812 -67.28125 32.332031 -66.609375 30.625 -65.265625 C 28.914062 -63.921875 28.0625 -62.109375 28.0625 -59.828125 C 28.0625 -58.691406 28.460938 -57.632812 29.265625 -56.65625 C 30.066406 -55.6875 31.4375 -54.648438 33.375 -53.546875 C 35.320312 -52.441406 37.035156 -51.550781 38.515625 -50.875 C 39.992188 -50.207031 42.273438 -49.207031 45.359375 -47.875 C 50.722656 -45.59375 55.296875 -42.488281 59.078125 -38.5625 C 62.867188 -34.644531 64.765625 -30.203125 64.765625 -25.234375 C 64.765625 -20.472656 63.910156 -16.316406 62.203125 -12.765625 C 60.492188 -9.210938 58.144531 -6.429688 55.15625 -4.421875 C 52.175781 -2.410156 48.875 -0.921875 45.25 0.046875 C 41.632812 1.023438 37.710938 1.515625 33.484375 1.515625 C 29.867188 1.515625 26.316406 1.144531 22.828125 0.40625 C 19.335938 -0.332031 16.421875 -1.253906 14.078125 -2.359375 C 11.734375 -3.460938 9.617188 -4.550781 7.734375 -5.625 C 5.859375 -6.695312 4.488281 -7.601562 3.625 -8.34375 L 2.3125 -9.453125 L 11.765625 -25.34375 C 12.566406 -24.675781 13.671875 -23.820312 15.078125 -22.78125 C 16.492188 -21.738281 18.992188 -20.34375 22.578125 -18.59375 C 26.160156 -16.851562 29.328125 -15.984375 32.078125 -15.984375 C 40.054688 -15.984375 44.046875 -18.703125 44.046875 -24.140625 C 44.046875 -25.273438 43.757812 -26.328125 43.1875 -27.296875 C 42.625 -28.273438 41.617188 -29.25 40.171875 -30.21875 C 38.734375 -31.1875 37.457031 -31.957031 36.34375 -32.53125 C 35.238281 -33.101562 33.429688 -33.972656 30.921875 -35.140625 C 28.410156 -36.316406 26.550781 -37.207031 25.34375 -37.8125 C 20.3125 -40.289062 16.421875 -43.390625 13.671875 -47.109375 C 10.921875 -50.828125 9.546875 -54.832031 9.546875 -59.125 C 9.546875 -66.570312 12.296875 -72.65625 17.796875 -77.375 C 23.296875 -82.101562 29.566406 -84.46875 36.609375 -84.46875 Z M 36.609375 -84.46875 "/></g></g></g></svg>