<!--?xml version="1.0" standalone="no"?-->
              <svg id="sw-js-blob-svg" viewBox="0 0 100 100" xmlns="http://www.w3.org/2000/svg" version="1.1">
                    <defs> 
                        <linearGradient id="sw-gradient" x1="0" x2="1" y1="1" y2="0">
                            <stop id="stop1" stop-color="rgba(255, 0, 0, 1)" offset="0%"></stop>
                            <stop id="stop2" stop-color="rgba(255, 181.487, 181.487, 1)" offset="100%"></stop>
                        </linearGradient>
                    </defs>
                <path fill="url(#sw-gradient)" d="M8,-10C10.9,-7,14.4,-5.1,14.6,-2.8C14.8,-0.4,11.7,2.3,10.3,7.2C9,12.1,9.2,19.1,6.8,20.9C4.4,22.8,-0.7,19.4,-6.7,17.6C-12.7,15.8,-19.5,15.5,-25.4,11.6C-31.4,7.7,-36.4,0.2,-33.2,-3.8C-30.1,-7.9,-18.8,-8.4,-11.9,-10.7C-5,-13.1,-2.5,-17.2,0,-17.1C2.5,-17.1,5,-13,8,-10Z" width="100%" height="100%" transform="translate(50 50)" stroke-width="0" style="transition: 0.3s;"></path>
              </svg>