<!--?xml version="1.0" standalone="no"?-->
              <svg id="sw-js-blob-svg" viewBox="0 0 100 100" xmlns="http://www.w3.org/2000/svg" version="1.1">
                    <defs> 
                        <linearGradient id="sw-gradient" x1="0" x2="1" y1="1" y2="0">
                            <stop id="stop1" stop-color="rgba(255, 0, 0, 1)" offset="0%"></stop>
                            <stop id="stop2" stop-color="rgba(255, 181.487, 181.487, 1)" offset="100%"></stop>
                        </linearGradient>
                    </defs>
                <path fill="url(#sw-gradient)" d="M12.3,-17.9C15.5,-12.1,17.2,-7.7,17,-3.8C16.8,0.1,14.6,3.6,13.2,9.1C11.8,14.6,11.3,22,6.5,28.1C1.8,34.3,-7.2,39.2,-10.8,35.4C-14.5,31.6,-12.9,19.1,-11.7,11.4C-10.6,3.8,-9.8,1.1,-11.8,-4.5C-13.7,-10.1,-18.2,-18.6,-16.7,-24.8C-15.2,-30.9,-7.6,-34.7,-1.5,-32.9C4.6,-31.1,9.2,-23.8,12.3,-17.9Z" width="100%" height="100%" transform="translate(50 50)" stroke-width="0" style="transition: 0.3s;"></path>
              </svg>