<!--?xml version="1.0" standalone="no"?-->
              <svg id="sw-js-blob-svg" viewBox="0 0 100 100" xmlns="http://www.w3.org/2000/svg" version="1.1">
                    <defs> 
                        <linearGradient id="sw-gradient" x1="0" x2="1" y1="1" y2="0">
                            <stop id="stop1" stop-color="rgba(255, 0, 0, 1)" offset="0%"></stop>
                            <stop id="stop2" stop-color="rgba(255, 255, 255, 1)" offset="100%"></stop>
                        </linearGradient>
                    </defs>
                <path fill="url(#sw-gradient)" d="M19.7,-26.3C25.1,-19,28.6,-12.3,29.4,-5.5C30.2,1.3,28.2,8.2,25.1,15.4C22,22.6,17.8,30.1,11.8,32.2C5.7,34.4,-2.2,31.2,-9.4,27.7C-16.7,24.3,-23.2,20.7,-26.3,15.2C-29.5,9.7,-29.3,2.3,-29.2,-6.4C-29.2,-15.1,-29.3,-25.1,-24.5,-32.5C-19.6,-39.9,-9.8,-44.7,-1.3,-43.1C7.2,-41.5,14.4,-33.6,19.7,-26.3Z" width="100%" height="100%" transform="translate(50 50)" stroke-width="0" style="transition: 0.3s;"></path>
              </svg>