<!--?xml version="1.0" standalone="no"?-->
              <svg id="sw-js-blob-svg" viewBox="0 0 100 100" xmlns="http://www.w3.org/2000/svg" version="1.1">
                    <defs> 
                        <linearGradient id="sw-gradient" x1="0" x2="1" y1="1" y2="0">
                            <stop id="stop1" stop-color="rgba(74.067, 0, 0, 1)" offset="0%"></stop>
                            <stop id="stop2" stop-color="rgba(255, 0, 0, 1)" offset="100%"></stop>
                        </linearGradient>
                    </defs>
                <path fill="url(#sw-gradient)" d="M23.9,-28.4C30.2,-23.3,33.8,-14.9,35.7,-6C37.6,2.9,37.8,12.4,33.6,19C29.3,25.6,20.7,29.3,12.6,30.3C4.6,31.4,-2.8,29.8,-9.3,26.9C-15.8,24,-21.4,19.8,-27.7,13.7C-33.9,7.6,-40.9,-0.4,-40,-7.4C-39.2,-14.4,-30.6,-20.3,-22.6,-25.1C-14.7,-29.9,-7.3,-33.5,0.8,-34.4C8.8,-35.3,17.7,-33.5,23.9,-28.4Z" width="100%" height="100%" transform="translate(50 50)" stroke-width="0" style="transition: 0.3s;"></path>
              </svg>